<svg width="40" height="41" viewBox="0 0 40 41" fill="none" xmlns="http://www.w3.org/2000/svg">
<g clip-path="url(#clip0_555_1467)">
<path d="M20 40.7812C31.0457 40.7812 40 31.8269 40 20.7812C40 9.73556 31.0457 0.78125 20 0.78125C8.95431 0.78125 0 9.73556 0 20.7812C0 31.8269 8.95431 40.7812 20 40.7812Z" fill="#FAFAFA"/>
<path d="M25.028 21.565H21.4593V34.6393H16.0523V21.565H13.4807V16.9702H16.0523V13.9968C16.0523 11.8705 17.0623 8.54102 21.5074 8.54102L25.5125 8.55777V13.0178H22.6065C22.1299 13.0178 21.4596 13.256 21.4596 14.2703V16.9745H25.5004L25.028 21.565Z" fill="#0A0A0B"/>
</g>
<defs>
<clipPath id="clip0_555_1467">
<rect width="40" height="40" fill="white" transform="translate(0 0.78125)"/>
</clipPath>
</defs>
</svg>
