<svg width="40" height="40" viewBox="0 0 40 40" fill="none" xmlns="http://www.w3.org/2000/svg">
<circle cx="20.0312" cy="20.2812" r="17" fill="#FAFAFA" stroke="#FAFAFA"/>
<path d="M19.5312 23.8828C21.7965 23.8828 23.6328 22.0465 23.6328 19.7812C23.6328 17.516 21.7965 15.6797 19.5312 15.6797C17.266 15.6797 15.4297 17.516 15.4297 19.7812C15.4297 22.0465 17.266 23.8828 19.5312 23.8828Z" fill="#0A0A0B"/>
<path d="M19.5312 0.25C8.74445 0.25 0 8.99445 0 19.7812C0 30.568 8.74445 39.3125 19.5312 39.3125C30.318 39.3125 39.0625 30.568 39.0625 19.7812C39.0625 8.99445 30.318 0.25 19.5312 0.25ZM31.5983 24.7453C31.5045 26.6022 30.9827 28.4333 29.6295 29.7721C28.2632 31.1237 26.4234 31.6273 24.5487 31.7201H14.5139C12.6389 31.6273 10.7994 31.124 9.43305 29.7721C8.07977 28.4333 7.55805 26.6022 7.4643 24.7453V14.8172C7.55805 12.9603 8.07984 11.1292 9.43305 9.79031C10.7994 8.43875 12.6391 7.93516 14.5139 7.84242H24.5486C26.4236 7.93516 28.2631 8.43852 29.6295 9.79031C30.9827 11.1292 31.5045 12.9603 31.5982 14.8172L31.5983 24.7453Z" fill="#FAFAFA"/>
<path d="M24.4218 10.105C21.9776 10.0379 17.0854 10.0379 14.6412 10.105C13.3692 10.1399 11.9273 10.4565 11.021 11.4245C10.0793 12.4307 9.72347 13.6463 9.68737 15.0062C9.62394 17.3931 9.68737 24.5571 9.68737 24.5571C9.7287 25.9169 10.0793 27.1327 11.021 28.1389C11.9273 29.1071 13.3692 29.4235 14.6412 29.4584C17.0854 29.5254 21.9776 29.5254 24.4218 29.4584C25.6938 29.4235 27.1357 29.1068 28.042 28.1389C28.9837 27.1327 29.3396 25.9171 29.3757 24.5571V15.0062C29.3396 13.6463 28.9837 12.4307 28.042 11.4245C27.1354 10.4562 25.6935 10.1399 24.4218 10.105ZM19.5312 26.1391C18.2738 26.1391 17.0447 25.7662 15.9992 25.0677C14.9537 24.3691 14.1389 23.3762 13.6577 22.2146C13.1765 21.0529 13.0506 19.7746 13.2959 18.5414C13.5412 17.3082 14.1467 16.1754 15.0358 15.2863C15.9249 14.3972 17.0577 13.7917 18.2909 13.5464C19.5241 13.3011 20.8024 13.427 21.9641 13.9082C23.1257 14.3894 24.1186 15.2042 24.8172 16.2497C25.5158 17.2952 25.8886 18.5243 25.8886 19.7817C25.8886 21.4678 25.2188 23.0848 24.0266 24.2771C22.8343 25.4693 21.2173 26.1391 19.5312 26.1391ZM25.9157 14.7365C25.6642 14.7365 25.4184 14.6618 25.2093 14.5221C25.0003 14.3823 24.8374 14.1837 24.7412 13.9514C24.645 13.7191 24.6199 13.4634 24.669 13.2168C24.718 12.9702 24.8392 12.7436 25.017 12.5659C25.1948 12.3881 25.4214 12.267 25.668 12.218C25.9147 12.1689 26.1703 12.1941 26.4026 12.2904C26.6349 12.3866 26.8335 12.5496 26.9732 12.7587C27.1129 12.9678 27.1875 13.2136 27.1875 13.465C27.1875 13.632 27.1546 13.7974 27.0906 13.9517C27.0267 14.106 26.933 14.2462 26.8149 14.3642C26.6968 14.4823 26.5566 14.5759 26.4023 14.6398C26.248 14.7037 26.0827 14.7366 25.9157 14.7365Z" fill="#0A0A0B"/>
</svg>
