<svg width="41" height="41" viewBox="0 0 41 41" fill="none" xmlns="http://www.w3.org/2000/svg">
<g clip-path="url(#clip0_555_1476)">
<rect x="0.0625" y="0.78125" width="40" height="40" rx="20" fill="black"/>
<path d="M37.1777 0.78125H2.94733C1.354 0.78125 0.0625 2.07275 0.0625 3.66608V37.8964C0.0625 39.4897 1.354 40.7812 2.94733 40.7812H37.1777C38.771 40.7812 40.0625 39.4897 40.0625 37.8964V3.66608C40.0625 2.07275 38.771 0.78125 37.1777 0.78125ZM14.2507 31.0156H9.37982V16.3614H14.2507V31.0156ZM11.8154 14.3604H11.7837C10.1492 14.3604 9.09204 13.2352 9.09204 11.8289C9.09204 10.3909 10.1815 9.29688 11.8478 9.29688C13.514 9.29688 14.5394 10.3909 14.5712 11.8289C14.5712 13.2352 13.514 14.3604 11.8154 14.3604ZM31.8142 31.0156H26.9439V23.176C26.9439 21.2057 26.2386 19.8621 24.4763 19.8621C23.1307 19.8621 22.3293 20.7684 21.9772 21.6434C21.8484 21.9565 21.817 22.3941 21.817 22.832V31.0156H16.9464C16.9464 31.0156 17.0101 17.7362 16.9464 16.3614H21.817V18.4363C22.4642 17.4377 23.6224 16.0175 26.2066 16.0175C29.4113 16.0175 31.8142 18.1119 31.8142 22.6129V31.0156Z" fill="white"/>
</g>
<defs>
<clipPath id="clip0_555_1476">
<rect x="0.0625" y="0.78125" width="40" height="40" rx="20" fill="white"/>
</clipPath>
</defs>
</svg>
