<svg width="41" height="41" viewBox="0 0 41 41" fill="none" xmlns="http://www.w3.org/2000/svg">
<g clip-path="url(#clip0_555_1478)">
<rect x="0.0625" y="0.78125" width="40" height="40" rx="20" fill="black"/>
<path d="M17.5713 24.5291L24.077 20.7821L17.5713 17.0352V24.5291Z" fill="white"/>
<path d="M37.1777 0.78125H2.94733C1.354 0.78125 0.0625 2.07275 0.0625 3.66608V37.8964C0.0625 39.4897 1.354 40.7812 2.94733 40.7812H37.1777C38.771 40.7812 40.0625 39.4897 40.0625 37.8964V3.66608C40.0625 2.07275 38.771 0.78125 37.1777 0.78125ZM32.5594 20.8017C32.5594 20.8017 32.5594 24.8578 32.0449 26.8137C31.7565 27.8842 30.9124 28.7283 29.8419 29.0164C27.886 29.5312 20.0625 29.5312 20.0625 29.5312C20.0625 29.5312 12.2595 29.5312 10.2831 28.996C9.21259 28.7079 8.36847 27.8635 8.08008 26.7929C7.56525 24.8578 7.56525 20.7812 7.56525 20.7812C7.56525 20.7812 7.56525 16.7255 8.08008 14.7696C8.36816 13.699 9.23303 12.8342 10.2831 12.5461C12.239 12.0312 20.0625 12.0312 20.0625 12.0312C20.0625 12.0312 27.886 12.0312 29.8419 12.5665C30.9124 12.8546 31.7565 13.699 32.0449 14.7696C32.5802 16.7255 32.5594 20.8017 32.5594 20.8017Z" fill="white"/>
</g>
<defs>
<clipPath id="clip0_555_1478">
<rect x="0.0625" y="0.78125" width="40" height="40" rx="20" fill="white"/>
</clipPath>
</defs>
</svg>
